REM MD5 476c54b7094f8865966943e2f4b6259c
FILE "Euro Demo 69 (Europe).bin" BINARY
  TRACK 01 MODE2/2352
    INDEX 01 00:00:00
  TRACK 02 AUDIO
    INDEX 00 29:13:05
    INDEX 01 29:15:05
  TRACK 03 AUDIO
    INDEX 00 30:16:43
    INDEX 01 30:18:43
  TRACK 04 AUDIO
    INDEX 00 31:20:17
    INDEX 01 31:22:17
  TRACK 05 AUDIO
    INDEX 00 31:45:09
    INDEX 01 31:47:09
REM LEADOUT 34:48:41
